<svg width="72" height="73" viewBox="0 0 72 73" fill="none" xmlns="http://www.w3.org/2000/svg">
<path d="M66.3503 22.9024H49.3896V5.6866C49.3896 3.09302 47.2895 0.979736 44.6884 0.979736H26.1287C23.5383 0.979736 21.4275 3.08235 21.4275 5.6866V14.9402H28.6659V8.22682H42.1406V43.1494H36.1921V50.3965H49.379V30.1495H63.8024V43.1494H56.5854V50.3965H66.3396C68.9301 50.3965 71.0408 48.2939 71.0408 45.6896V27.6093C71.0408 25.0157 68.9407 22.9024 66.3503 22.9024Z" fill="#247CFF"/>
<path d="M42.1511 64.7733H28.6764V30.1495H34.7314V22.9024H21.438V43.1388H7.23838V30.1495H14.3382V22.9024H4.70122C2.10009 22.9024 0 25.0157 0 27.6093V45.6897C0 48.2832 2.10009 50.3965 4.70122 50.3965H21.438V67.3242C21.438 69.9177 23.5381 72.031 26.1392 72.031H44.6989C47.2893 72.031 49.4001 69.9284 49.4001 67.3242V57.5902H42.1617V64.7733H42.1511Z" fill="#247CFF"/>
</svg>
